<svg version="1.2" xmlns="http://www.w3.org/2000/svg" viewBox="0 0 800 800" width="800" height="800">
	<title>新建项目</title>
	<style>
		.s0 { fill: #272727 } 
		.s1 { fill: #565656 } 
		.s2 { fill: #000000 } 
		.s3 { fill: #2196f3 } 
		.s4 { fill: #ffffff } 
		.s5 { fill: #eeeeee } 
	</style>
	<path id="形状 7" class="s0" d="m46 60h708c25.4 0 46 20.6 46 46v608c0 25.4-20.6 46-46 46h-708c-25.4 0-46-20.6-46-46v-608c0-25.4 20.6-46 46-46z"/>
	<path id="形状 1" class="s1" d="m320 232h160c11 0 20 9 20 20v420c0 11-9 20-20 20h-160c-11 0-20-9-20-20v-420c0-11 9-20 20-20zm0 0h160c11 0 20 9 20 20v420c0 11-9 20-20 20h-160c-11 0-20-9-20-20v-420c0-11 9-20 20-20z"/>
	<path id="形状 1 copy" class="s1" d="m90 232h160c11 0 20 9 20 20v420c0 11-9 20-20 20h-160c-11 0-20-9-20-20v-420c0-11 9-20 20-20zm0 0h160c11 0 20 9 20 20v420c0 11-9 20-20 20h-160c-11 0-20-9-20-20v-420c0-11 9-20 20-20z"/>
	<path id="形状 1 copy 2" class="s1" d="m550 232h160c11 0 20 9 20 20v420c0 11-9 20-20 20h-160c-11 0-20-9-20-20v-420c0-11 9-20 20-20zm0 0h160c11 0 20 9 20 20v420c0 11-9 20-20 20h-160c-11 0-20-9-20-20v-420c0-11 9-20 20-20z"/>
	<path id="形状 4" class="s2" d="m101 247h138c8.8 0 16 7.2 16 16v68c0 8.8-7.2 16-16 16h-138c-8.8 0-16-7.2-16-16v-68c0-8.8 7.2-16 16-16z"/>
	<path id="形状 4 copy 2" class="s2" d="m331 247h138c8.8 0 16 7.2 16 16v68c0 8.8-7.2 16-16 16h-138c-8.8 0-16-7.2-16-16v-68c0-8.8 7.2-16 16-16z"/>
	<path id="形状 4 copy 3" class="s2" d="m560 247h138c8.8 0 16 7.2 16 16v68c0 8.8-7.2 16-16 16h-138c-8.8 0-16-7.2-16-16v-68c0-8.8 7.2-16 16-16z"/>
	<path id="形状 4 copy 4" class="s2" d="m561 360h138c8.8 0 16 7.2 16 16v68c0 8.8-7.2 16-16 16h-138c-8.8 0-16-7.2-16-16v-68c0-8.8 7.2-16 16-16z"/>
	<path id="形状 4 copy 5" class="s2" d="m561 472h138c8.8 0 16 7.2 16 16v68c0 8.8-7.2 16-16 16h-138c-8.8 0-16-7.2-16-16v-68c0-8.8 7.2-16 16-16z"/>
	<path id="形状 4 copy" class="s2" d="m101 360h138c8.8 0 16 7.2 16 16v68c0 8.8-7.2 16-16 16h-138c-8.8 0-16-7.2-16-16v-68c0-8.8 7.2-16 16-16z"/>
	<path id="形状 2" class="s1" d="m90 124h230c11 0 20 9 20 20v21.3c0 11-9 20-20 20h-230c-11 0-20-9-20-20v-21.3c0-11 9-20 20-20z"/>
	<path id="形状 2 copy" class="s1" d="m379 124h230c11 0 20 9 20 20v21.3c0 11-9 20-20 20h-230c-11 0-20-9-20-20v-21.3c0-11 9-20 20-20z"/>
	<path id="形状 3" class="s3" d="m699.5 186c-16.9 0-30.5-13.6-30.5-30.5 0-16.9 13.6-30.5 30.5-30.5 16.9 0 30.5 13.6 30.5 30.5 0 16.9-13.6 30.5-30.5 30.5z"/>
	<path id="形状 5" class="s4" d="m684 152h31c1.7 0 3 1.3 3 3 0 1.7-1.3 3-3 3h-31c-1.7 0-3-1.3-3-3 0-1.7 1.3-3 3-3zm0 0h31c1.7 0 3 1.3 3 3 0 1.7-1.3 3-3 3h-31c-1.7 0-3-1.3-3-3 0-1.7 1.3-3 3-3z"/>
	<path id="形状 5 copy" class="s4" d="m702.5 139.5v31c0 1.7-1.3 3-3 3-1.7 0-3-1.3-3-3v-31c0-1.7 1.3-3 3-3 1.7 0 3 1.3 3 3zm0 0v31c0 1.7-1.3 3-3 3-1.7 0-3-1.3-3-3v-31c0-1.7 1.3-3 3-3 1.7 0 3 1.3 3 3z"/>
	<path id="形状 6" class="s5" d="m106 260h104c1.7 0 3 1.3 3 3v9c0 1.7-1.3 3-3 3h-104c-1.7 0-3-1.3-3-3v-9c0-1.7 1.3-3 3-3zm0 31h131c1.7 0 3 1.3 3 3v1c0 1.7-1.3 3-3 3h-131c-1.7 0-3-1.3-3-3v-1c0-1.7 1.3-3 3-3zm0 16h131c1.7 0 3 1.3 3 3v1c0 1.7-1.3 3-3 3h-131c-1.7 0-3-1.3-3-3v-1c0-1.7 1.3-3 3-3zm0 16h74c1.7 0 3 1.3 3 3v1c0 1.7-1.3 3-3 3h-74c-1.7 0-3-1.3-3-3v-1c0-1.7 1.3-3 3-3z"/>
	<path id="形状 6 copy 2" class="s5" d="m334 260h104c1.7 0 3 1.3 3 3v9c0 1.7-1.3 3-3 3h-104c-1.7 0-3-1.3-3-3v-9c0-1.7 1.3-3 3-3zm0 31h131c1.7 0 3 1.3 3 3v1c0 1.7-1.3 3-3 3h-131c-1.7 0-3-1.3-3-3v-1c0-1.7 1.3-3 3-3zm0 16h131c1.7 0 3 1.3 3 3v1c0 1.7-1.3 3-3 3h-131c-1.7 0-3-1.3-3-3v-1c0-1.7 1.3-3 3-3zm0 16h74c1.7 0 3 1.3 3 3v1c0 1.7-1.3 3-3 3h-74c-1.7 0-3-1.3-3-3v-1c0-1.7 1.3-3 3-3z"/>
	<path id="形状 6 copy 3" class="s5" d="m564 260h104c1.7 0 3 1.3 3 3v9c0 1.7-1.3 3-3 3h-104c-1.7 0-3-1.3-3-3v-9c0-1.7 1.3-3 3-3zm0 31h131c1.7 0 3 1.3 3 3v1c0 1.7-1.3 3-3 3h-131c-1.7 0-3-1.3-3-3v-1c0-1.7 1.3-3 3-3zm0 16h131c1.7 0 3 1.3 3 3v1c0 1.7-1.3 3-3 3h-131c-1.7 0-3-1.3-3-3v-1c0-1.7 1.3-3 3-3zm0 16h74c1.7 0 3 1.3 3 3v1c0 1.7-1.3 3-3 3h-74c-1.7 0-3-1.3-3-3v-1c0-1.7 1.3-3 3-3z"/>
	<path id="形状 6 copy 4" class="s5" d="m564 375h104c1.7 0 3 1.3 3 3v9c0 1.7-1.3 3-3 3h-104c-1.7 0-3-1.3-3-3v-9c0-1.7 1.3-3 3-3zm0 31h131c1.7 0 3 1.3 3 3v1c0 1.7-1.3 3-3 3h-131c-1.7 0-3-1.3-3-3v-1c0-1.7 1.3-3 3-3zm0 16h131c1.7 0 3 1.3 3 3v1c0 1.7-1.3 3-3 3h-131c-1.7 0-3-1.3-3-3v-1c0-1.7 1.3-3 3-3zm0 16h74c1.7 0 3 1.3 3 3v1c0 1.7-1.3 3-3 3h-74c-1.7 0-3-1.3-3-3v-1c0-1.7 1.3-3 3-3z"/>
	<path id="形状 6 copy 5" class="s5" d="m564 487h104c1.7 0 3 1.3 3 3v9c0 1.7-1.3 3-3 3h-104c-1.7 0-3-1.3-3-3v-9c0-1.7 1.3-3 3-3zm0 31h131c1.7 0 3 1.3 3 3v1c0 1.7-1.3 3-3 3h-131c-1.7 0-3-1.3-3-3v-1c0-1.7 1.3-3 3-3zm0 16h131c1.7 0 3 1.3 3 3v1c0 1.7-1.3 3-3 3h-131c-1.7 0-3-1.3-3-3v-1c0-1.7 1.3-3 3-3zm0 16h74c1.7 0 3 1.3 3 3v1c0 1.7-1.3 3-3 3h-74c-1.7 0-3-1.3-3-3v-1c0-1.7 1.3-3 3-3z"/>
	<path id="形状 6 copy" class="s5" d="m106 375h104c1.7 0 3 1.3 3 3v9c0 1.7-1.3 3-3 3h-104c-1.7 0-3-1.3-3-3v-9c0-1.7 1.3-3 3-3zm0 31h131c1.7 0 3 1.3 3 3v1c0 1.7-1.3 3-3 3h-131c-1.7 0-3-1.3-3-3v-1c0-1.7 1.3-3 3-3zm0 16h131c1.7 0 3 1.3 3 3v1c0 1.7-1.3 3-3 3h-131c-1.7 0-3-1.3-3-3v-1c0-1.7 1.3-3 3-3zm0 16h74c1.7 0 3 1.3 3 3v1c0 1.7-1.3 3-3 3h-74c-1.7 0-3-1.3-3-3v-1c0-1.7 1.3-3 3-3z"/>
</svg>